<?xml version="1.0" standalone="no"?>
<!DOCTYPE svg PUBLIC "-//W3C//DTD SVG 20010904//EN"
 "http://www.w3.org/TR/2001/REC-SVG-20010904/DTD/svg10.dtd">
<svg version="1.0" xmlns="http://www.w3.org/2000/svg"
 width="24.000000pt" height="24.000000pt" viewBox="0 0 24.000000 24.000000"
 preserveAspectRatio="xMidYMid meet">

<g transform="translate(0.000000,24.000000) scale(0.100000,-0.100000)"
fill="#000000" stroke="none">
<path d="M93 224 c-6 -17 13 -35 31 -28 11 4 39 -71 41 -108 0 -10 4 -18 8
-18 4 0 12 0 17 0 17 0 11 44 -10 70 -11 14 -20 36 -20 51 0 14 -5 30 -12 37
-17 17 -48 15 -55 -4z"/>
<path d="M71 136 c-26 -41 -26 -42 -1 -73 11 -14 20 -21 20 -16 0 5 -5 14 -11
20 -8 8 -7 23 4 57 9 25 14 46 12 46 -2 0 -13 -15 -24 -34z"/>
<path d="M93 23 c11 -10 57 -13 57 -2 0 5 -14 9 -32 9 -17 0 -28 -3 -25 -7z"/>
</g>
</svg>
